<svg width="16" height="16" viewBox="0 0 16 16" fill="none" xmlns="http://www.w3.org/2000/svg">
<path d="M14.5 4V11.5C14.5 11.8978 14.342 12.2794 14.0607 12.5607C13.7794 12.842 13.3978 13 13 13H2C1.60336 13 1.22287 12.8429 0.941763 12.5631C0.660655 12.2833 0.501818 11.9035 0.5 11.5069V5.5C0.5 5.36739 0.552678 5.24021 0.646447 5.14645C0.740215 5.05268 0.867392 5 1 5C1.13261 5 1.25979 5.05268 1.35355 5.14645C1.44732 5.24021 1.5 5.36739 1.5 5.5V11.5C1.5 11.6326 1.55268 11.7598 1.64645 11.8536C1.74021 11.9473 1.86739 12 2 12C2.13261 12 2.25979 11.9473 2.35355 11.8536C2.44732 11.7598 2.5 11.6326 2.5 11.5V4C2.5 3.73478 2.60536 3.48043 2.79289 3.29289C2.98043 3.10536 3.23478 3 3.5 3H13.5C13.7652 3 14.0196 3.10536 14.2071 3.29289C14.3946 3.48043 14.5 3.73478 14.5 4ZM13.5 4H3.5V11.5C3.50025 11.6703 3.47129 11.8395 3.41438 12H13C13.1326 12 13.2598 11.9473 13.3536 11.8536C13.4473 11.7598 13.5 11.6326 13.5 11.5V4Z" fill="#1A1A1A"/>
<path d="M6.09375 8.5H10.9062" stroke="#1A1A1A" stroke-width="0.8" stroke-linecap="round" stroke-linejoin="round"/>
<path d="M8.9375 6.53125L10.9062 8.5L8.9375 10.4688" stroke="#1A1A1A" stroke-width="0.8" stroke-linecap="round" stroke-linejoin="round"/>
</svg>
