<svg width="8" height="8" viewBox="0 0 8 8" fill="none" xmlns="http://www.w3.org/2000/svg">
<path d="M5.53339 1.94C5.30558 1.67984 5.18002 1.3458 5.18005 1H4.15005V5.13333C4.14227 5.35706 4.04789 5.56903 3.88682 5.7245C3.72575 5.87997 3.51058 5.9668 3.28672 5.96667C2.81339 5.96667 2.42005 5.58 2.42005 5.1C2.42005 4.52667 2.97339 4.09667 3.54339 4.27333V3.22C2.39339 3.06667 1.38672 3.96 1.38672 5.1C1.38672 6.21 2.30672 7 3.28339 7C4.33005 7 5.18005 6.15 5.18005 5.1V3.00333C5.59772 3.30328 6.09917 3.46422 6.61339 3.46333V2.43333C6.61339 2.43333 5.98672 2.46333 5.53339 1.94Z" fill="black"/>
</svg>
